<svg xmlns="http://www.w3.org/2000/svg" width="51.531" height="70.004" viewBox="0 0 51.531 70.004"><defs><style>.a{fill:#fa5f56;}</style></defs><path class="a" d="M-1405.776-214h-2.917c-13.424,0-24.307,11.523-24.307,25.737h0c0,14.214,25.766,44.267,25.766,44.267s25.765-30.053,25.765-44.267S-1392.352-214-1405.776-214Zm4.313,48.1c-1.982,2.864-3.978,5.567-5.772,7.916-1.794-2.349-3.79-5.052-5.772-7.916-10.7-15.459-11.243-21.34-11.243-22.362,0-9.366,6.979-16.986,15.556-16.986h2.917c8.578,0,15.557,7.62,15.557,16.986C-1390.22-187.241-1390.762-181.361-1401.463-165.9Z" transform="translate(1433 214)"/><path class="a" d="M-1388.221-177a7.778,7.778,0,0,0-7.778,7.778h0a7.778,7.778,0,0,0,7.778,7.778,7.778,7.778,0,0,0,7.778-7.778A7.778,7.778,0,0,0-1388.221-177Z" transform="translate(1413.987 194.987)"/></svg>