<svg xmlns="http://www.w3.org/2000/svg" width="76.141" height="56.162" viewBox="0 0 76.141 56.162"><g transform="translate(0 -19)"><path d="M5391.64,1831.844a25.9,25.9,0,0,1-25.962-23.285h-5.78a4.37,4.37,0,0,1-4.325-4.989l.122-.853a4.37,4.37,0,0,1,4.326-3.751h6.259a30.848,30.848,0,0,1,29.445-23.284,25.9,25.9,0,0,1,25.959,23.284h5.616a4.37,4.37,0,0,1,4.273,5.281l-.182.853a4.37,4.37,0,0,1-4.273,3.459h-6.037A30.851,30.851,0,0,1,5391.64,1831.844Zm-16.283-23.285a16.172,16.172,0,0,0,16.283,13.691,21.094,21.094,0,0,0,19.462-13.691h-4.616a4.371,4.371,0,0,1-4.326-4.991l.124-.854a4.369,4.369,0,0,1,4.325-3.748h5.4a16.171,16.171,0,0,0-16.281-13.692,21.093,21.093,0,0,0-19.466,13.692h4.454a4.371,4.371,0,0,1,4.273,5.284l-.183.853a4.37,4.37,0,0,1-4.273,3.456Z" transform="translate(-5355.529 -1756.682)" fill="#fa5f56"/></g></svg>