<svg xmlns="http://www.w3.org/2000/svg" width="175.681" height="34.836" viewBox="0 0 175.681 34.836"><path d="M5588.611,2165.009a12.967,12.967,0,0,0-5.813,1.4l1.52-8.743a2.45,2.45,0,0,0-2.415-2.87h-5.755a2.45,2.45,0,1,0,0,4.9h2.323l-4.191,23.989h-3.163a2.449,2.449,0,0,0-2.4,1.936l-.115.534a2.452,2.452,0,0,0,2.4,2.964h5.794a2.45,2.45,0,0,0,2.414-2.031l.086-.5a11.385,11.385,0,0,0,7.637,2.912,13.2,13.2,0,0,0,13.123-12.932A11.381,11.381,0,0,0,5588.611,2165.009Zm-1.677,19.058a5.936,5.936,0,0,1-6.01-6.125,7.7,7.7,0,0,1,7.688-7.5,5.936,5.936,0,0,1,6.011,6.125A7.7,7.7,0,0,1,5586.934,2184.066Z" transform="translate(-5488.245 -2154.795)" fill="#fa5f56"/><path d="M5676.322,2189.294c0-4.429-3.5-7.405-8.7-7.405-7.237,0-13.35,5.94-13.35,12.97a11.4,11.4,0,0,0,11.788,11.521,14.594,14.594,0,0,0,8.833-3.049,2.45,2.45,0,0,0,.419-3.507l-.343-.42a2.451,2.451,0,0,0-3.374-.4,9.046,9.046,0,0,1-5.536,1.944,6.084,6.084,0,0,1-5.638-3.055c.895.086,1.858.142,2.856.142C5671.079,2198.033,5676.322,2194.521,5676.322,2189.294Zm-16.191,3.1a7.9,7.9,0,0,1,7.49-5.076c1.22,0,3.267.257,3.267,1.971,0,2.17-3.83,3.3-7.611,3.3A26.157,26.157,0,0,1,5660.131,2192.4Z" transform="translate(-5541.65 -2171.675)" fill="#fa5f56"/><path d="M5735.248,2200.376h-1.31l1.652-9.188a7.738,7.738,0,0,0-1.408-6.644c-1.611-1.935-4.29-2.958-7.748-2.958a21.435,21.435,0,0,0-8.517,1.758,2.451,2.451,0,0,0-1.071,3.272l.229.458a2.451,2.451,0,0,0,3.232,1.125,17.525,17.525,0,0,1,6.126-1.179c1.766,0,3.064.342,3.562.938a3.008,3.008,0,0,1,.239,2.273l-.136.752a26.544,26.544,0,0,0-6.033-.782c-7.882,0-10.679,4.132-10.679,7.67,0,4.007,2.9,8.32,9.273,8.32a15.874,15.874,0,0,0,5.919-1.187,2.451,2.451,0,0,0,1.817.806h4.736a2.449,2.449,0,0,0,2.395-1.935l.115-.534a2.45,2.45,0,0,0-2.4-2.966Zm-6.552-1.548a10.824,10.824,0,0,1-6.035,1.93c-3.173,0-3.839-1.569-3.839-2.886,0-1.648,2.709-2.236,5.244-2.236a21.849,21.849,0,0,1,5.08.719Z" transform="translate(-5578.48 -2171.486)" fill="#fa5f56"/><path d="M5790.019,2183.782a2.864,2.864,0,0,0-3.452,2.258,2.493,2.493,0,0,1-2.475,2.12,1.56,1.56,0,0,1-1.183-.492,3.631,3.631,0,0,1-.329-2.845l1.739-9.866h3.832a2.45,2.45,0,0,0,2.4-1.94l.114-.534a2.451,2.451,0,0,0-2.4-2.961h-3l.937-5.277a2.45,2.45,0,0,0-3.394-2.673l-.61.267a2.449,2.449,0,0,0-1.433,1.825l-1.019,5.859h-3.123a2.45,2.45,0,0,0-2.4,1.94l-.114.534a2.45,2.45,0,0,0,2.4,2.961h2.27l-1.558,8.935c-.661,3.709.458,5.989,1.513,7.248a6.952,6.952,0,0,0,5.359,2.455,7.973,7.973,0,0,0,7.747-6.281A2.758,2.758,0,0,0,5790.019,2183.782Z" transform="translate(-5616.279 -2158.888)" fill="#fa5f56"/><path d="M5413.754,2174.543a2.45,2.45,0,0,0,2.414-2.028l.958-5.469a2.451,2.451,0,0,0-2.414-2.873h-18.042a2.45,2.45,0,0,0-2.4,1.935l-.1.478a2.451,2.451,0,0,0,2.4,2.967h1.767l-1.338,7.643h-4.6a14.53,14.53,0,0,0-14.6-13.535,17.16,17.16,0,0,0-16.619,13.526h-3.134a2.45,2.45,0,0,0-2.425,2.1l-.069.479a2.451,2.451,0,0,0,2.425,2.8h3.034a14.514,14.514,0,0,0,14.5,12.588,17.183,17.183,0,0,0,16.4-12.579h4.146l-1.17,6.688h-2.1a2.45,2.45,0,0,0-2.4,1.935l-.1.479a2.451,2.451,0,0,0,2.4,2.966h8.862a2.449,2.449,0,0,0,2.4-1.935l.1-.479a2.451,2.451,0,0,0-2.4-2.966h-1.3l1.184-6.687h5.944a2.451,2.451,0,0,0,2.4-1.939l.1-.479a2.451,2.451,0,0,0-2.4-2.961h-5.109l1.354-7.643h7.422l-.376,2.11a2.451,2.451,0,0,0,2.413,2.88Zm-38.244,15.232a9.056,9.056,0,0,1-9.037-7.209h3.075a2.45,2.45,0,0,0,2.4-1.94l.1-.478a2.45,2.45,0,0,0-2.4-2.961h-2.928a11.724,11.724,0,0,1,11.078-8.147,9.081,9.081,0,0,1,9.2,8.156h-3.171a2.451,2.451,0,0,0-2.426,2.1l-.068.479a2.449,2.449,0,0,0,2.425,2.8h2.489A11.739,11.739,0,0,1,5375.51,2189.774Z" transform="translate(-5355.529 -2160.318)" fill="#fa5f56"/><path d="M5527.344,2178.043h-6.01l1.354-7.643h7.422l-.376,2.11a2.451,2.451,0,0,0,2.413,2.88h.479a2.45,2.45,0,0,0,2.414-2.028l.957-5.469a2.45,2.45,0,0,0-2.414-2.873h-18.042a2.45,2.45,0,0,0-2.4,1.936l-.1.479a2.451,2.451,0,0,0,2.4,2.965h1.767l-1.338,7.643h-6.579a2.451,2.451,0,0,0-2.426,2.1l-.068.478a2.449,2.449,0,0,0,2.425,2.8h5.707l-1.17,6.688h-2.1a2.45,2.45,0,0,0-2.4,1.935l-.1.479a2.45,2.45,0,0,0,2.4,2.966h8.862a2.45,2.45,0,0,0,2.4-1.937l.1-.479a2.45,2.45,0,0,0-2.4-2.964h-1.3l1.184-6.687h6.844a2.45,2.45,0,0,0,2.4-1.939l.1-.479a2.451,2.451,0,0,0-2.4-2.961Z" transform="translate(-5449.754 -2161.166)" fill="#fa5f56"/></svg>