<svg xmlns="http://www.w3.org/2000/svg" width="67.352" height="59.762" viewBox="0 0 67.352 59.762"><defs><style>.a{fill:#fa5f56;}</style></defs><path class="a" d="M-401.3-212.335a3.8,3.8,0,0,0-3.514-.409l-18.552,7.174-18.552-7.174-.025-.008c-.073-.028-.147-.047-.221-.07s-.145-.049-.219-.067-.146-.027-.219-.041-.154-.032-.232-.041-.138-.009-.207-.013-.165-.014-.249-.014c-.066,0-.132.008-.2.011-.086,0-.173.006-.258.017-.064.008-.127.023-.191.034-.087.015-.174.027-.259.048-.066.016-.13.04-.2.06-.081.025-.163.047-.242.077l-.024.007-19.921,7.7A3.8,3.8,0,0,0-467-201.5v44.471a3.8,3.8,0,0,0,1.649,3.13,3.8,3.8,0,0,0,2.146.665,3.8,3.8,0,0,0,1.368-.255l18.552-7.174,18.552,7.174c.066.026.134.045.2.067.027.009.054.019.081.027a3.78,3.78,0,0,0,.482.11c.033.006.066.01.1.014a3.762,3.762,0,0,0,.5.038h0a3.759,3.759,0,0,0,.5-.038c.034,0,.067-.008.1-.014a3.779,3.779,0,0,0,.481-.109l.083-.028c.066-.021.134-.041.2-.066l19.921-7.7a3.8,3.8,0,0,0,2.426-3.539v-44.471A3.8,3.8,0,0,0-401.3-212.335ZM-459.411-198.9l12.332-4.769v36.334l-12.332,4.769Zm19.921-4.769,12.332,4.769v36.334l-12.332-4.769Zm32.253,36.334-12.332,4.769V-198.9l12.332-4.769Z" transform="translate(467 212.999)"/></svg>