<svg xmlns="http://www.w3.org/2000/svg" width="67.352" height="59.762"><path d="M65.7.664a3.8 3.8 0 00-3.514-.409L43.634 7.429 25.082.255l-.025-.008c-.073-.028-.147-.047-.221-.07s-.145-.049-.219-.067-.146-.027-.219-.041-.154-.032-.232-.041-.138-.009-.207-.013-.165-.014-.249-.014c-.066 0-.132.008-.2.011a2.02 2.02 0 00-.258.017c-.064.008-.127.023-.191.034-.087.015-.174.027-.259.048-.066.016-.13.04-.2.06-.081.025-.163.047-.242.077l-.024.007-19.921 7.7A3.8 3.8 0 000 11.499V55.97a3.8 3.8 0 001.649 3.13 3.8 3.8 0 002.146.665 3.8 3.8 0 001.368-.255l18.552-7.174 18.552 7.174c.066.026.134.045.2.067l.081.027a3.78 3.78 0 00.482.11c.033.006.066.01.1.014a3.762 3.762 0 00.5.038 3.759 3.759 0 00.5-.038c.034 0 .067-.008.1-.014a3.779 3.779 0 00.481-.109l.083-.028c.066-.021.134-.041.2-.066l19.921-7.7a3.8 3.8 0 002.426-3.539V3.801A3.8 3.8 0 0065.7.664zM7.589 14.099L19.921 9.33v36.334L7.589 50.433zM27.51 9.33l12.332 4.769v36.334L27.51 45.664zm32.253 36.334l-12.332 4.769V14.099L59.763 9.33z" fill="#fa5f56"/></svg>