<svg xmlns="http://www.w3.org/2000/svg" width="51.531" height="70.004"><defs><style>.a{fill:#fa5f56}</style></defs><path class="a" d="M27.224 0h-2.917C10.883 0 0 11.523 0 25.737c0 14.214 25.766 44.267 25.766 44.267s25.765-30.053 25.765-44.267S40.648 0 27.224 0zm4.313 48.1a210.84 210.84 0 01-5.772 7.916 210.84 210.84 0 01-5.772-7.916C9.293 32.641 8.75 26.76 8.75 25.738c0-9.366 6.979-16.986 15.556-16.986h2.917c8.578 0 15.557 7.62 15.557 16.986 0 1.021-.542 6.901-11.243 22.362z"/><path class="a" d="M25.766 17.987a7.778 7.778 0 00-7.778 7.778 7.778 7.778 0 007.778 7.778 7.778 7.778 0 007.778-7.778 7.778 7.778 0 00-7.778-7.778z"/></svg>